<svg width="1601" height="489" viewBox="0 0 1601 489" fill="none" xmlns="http://www.w3.org/2000/svg">
<path d="M91.0978 323.271C73.9461 323.271 57.2799 320.736 41.0992 315.666C24.9184 310.596 11.2187 303.261 0 293.66L25.242 253.532C29.9884 258.602 36.0292 262.971 43.3645 266.638C50.6998 270.306 58.5205 273.164 66.8266 275.214C75.2406 277.156 83.3849 278.127 91.2596 278.127C102.37 278.127 111.378 276.293 118.281 272.625C125.293 268.85 128.799 263.402 128.799 256.282C128.799 250.457 126.264 245.549 121.194 241.558C116.232 237.567 106.901 233.737 93.2013 230.07L73.7843 224.568C50.484 218.096 33.71 209.25 23.4621 198.032C13.2143 186.813 8.09039 173.329 8.09039 157.58C8.09039 147.44 10.2478 138.109 14.5627 129.587C18.8776 120.957 24.9184 113.514 32.6852 107.258C40.4519 100.893 49.5671 95.9849 60.0307 92.533C70.6021 88.9732 82.0905 87.1934 94.4957 87.1934C111.647 87.1934 127.558 89.7283 142.229 94.7983C157.007 99.7604 168.873 106.556 177.827 115.186L151.614 154.02C147.515 149.705 142.445 145.93 136.404 142.693C130.363 139.457 123.783 136.922 116.663 135.088C109.544 133.255 102.37 132.338 95.143 132.338C88.0234 132.338 81.8208 133.255 76.5351 135.088C71.2493 136.922 67.0963 139.565 64.0759 143.017C61.1633 146.361 59.7071 150.352 59.7071 154.991C59.7071 158.766 60.7858 161.949 62.9432 164.537C65.2085 167.019 68.9301 169.392 74.108 171.657C79.3937 173.922 86.5132 176.403 95.4666 179.1L115.207 184.925C138.4 191.721 155.174 200.243 165.529 210.491C175.885 220.739 181.063 234.061 181.063 250.457C181.063 264.804 177.395 277.479 170.06 288.482C162.725 299.377 152.315 307.899 138.831 314.048C125.455 320.197 109.544 323.271 91.0978 323.271Z" fill="white"/>
<path d="M234.839 318.417V91.8858H325.613C342.549 91.8858 357.543 94.8523 370.595 100.785C383.648 106.61 393.896 115.132 401.339 126.351C408.89 137.57 412.665 151.053 412.665 166.803C412.665 182.768 409.213 196.306 402.31 207.417C395.406 218.527 385.374 226.995 372.213 232.82C359.053 238.645 343.088 241.558 324.318 241.558H288.559V318.417H234.839ZM288.559 196.575H323.024C334.35 196.575 343.142 194.364 349.399 189.941C355.763 185.411 358.945 177.968 358.945 167.612C358.945 157.256 355.655 149.759 349.075 145.121C342.603 140.374 334.027 138.001 323.347 138.001H288.559V196.575Z" fill="white"/>
<path d="M428.346 318.417L512.971 91.8858H575.267L660.701 318.417H600.185L584.166 272.463H502.939L487.244 318.417H428.346ZM515.075 227.642H571.707L543.229 149.328L515.075 227.642Z" fill="white"/>
<path d="M704.587 318.417V91.8858H796.494C813.322 91.8858 827.992 94.6365 840.505 100.138C853.126 105.532 862.835 113.406 869.631 123.762C876.535 134.118 879.986 146.523 879.986 160.978C879.986 172.088 877.883 181.905 873.676 190.427C869.469 198.841 863.698 205.852 856.362 211.462C849.027 217.071 840.721 221.278 831.444 224.083L892.446 318.417H828.693L778.209 235.086H758.307V318.417H704.587ZM758.307 192.045H790.021C801.24 192.045 809.978 189.833 816.234 185.411C822.599 180.988 825.781 173.976 825.781 164.376C825.781 154.667 822.76 147.548 816.72 143.017C810.787 138.379 802.265 136.059 791.154 136.059H758.307V192.045Z" fill="white"/>
<path d="M942.937 318.417V91.8858H996.657V188.485L1073.52 91.8858H1140.5L1056.69 195.928L1151.35 318.417H1082.25L1021.25 236.542L996.657 264.535V318.417H942.937Z" fill="white"/>
<path d="M1439.34 318.416V91.8848H1598.56V138.485H1493.06V180.555H1581.57V223.596H1493.06V271.33H1599.85V318.416H1439.34Z" fill="white"/>
<path d="M381.49 483.299V430.442H390.967L412.034 464.95L408.183 464.988L428.382 430.442H437.745V483.299H428.193L428.344 443.278L430.157 443.92L413.091 472.388H406.182L388.701 443.92L390.325 443.278L390.476 483.299H381.49ZM483.306 484.431C479.304 484.431 475.592 483.739 472.169 482.355C468.771 480.945 465.813 478.995 463.296 476.503C460.779 474.011 458.828 471.091 457.444 467.744C456.06 464.396 455.368 460.772 455.368 456.87C455.368 452.944 456.06 449.307 457.444 445.959C458.828 442.611 460.779 439.692 463.296 437.2C465.813 434.708 468.771 432.77 472.169 431.386C475.592 430.001 479.304 429.309 483.306 429.309C487.283 429.309 490.971 430.014 494.369 431.423C497.767 432.833 500.724 434.796 503.241 437.313C505.758 439.83 507.721 442.762 509.131 446.11C510.54 449.432 511.245 453.019 511.245 456.87C511.245 460.772 510.54 464.396 509.131 467.744C507.721 471.091 505.758 474.011 503.241 476.503C500.724 478.995 497.767 480.945 494.369 482.355C490.971 483.739 487.283 484.431 483.306 484.431ZM483.306 475.181C485.798 475.181 488.114 474.754 490.253 473.898C492.418 473.017 494.293 471.784 495.879 470.198C497.49 468.587 498.736 466.661 499.617 464.421C500.523 462.156 500.976 459.639 500.976 456.87C500.976 453.17 500.196 449.948 498.635 447.205C497.074 444.461 494.96 442.334 492.292 440.824C489.624 439.314 486.629 438.559 483.306 438.559C480.789 438.559 478.461 438.987 476.322 439.843C474.182 440.698 472.307 441.932 470.696 443.543C469.11 445.154 467.865 447.079 466.958 449.319C466.077 451.559 465.637 454.076 465.637 456.87C465.637 460.57 466.405 463.792 467.94 466.536C469.501 469.279 471.615 471.406 474.283 472.916C476.951 474.426 479.959 475.181 483.306 475.181ZM541.257 483.299L521.209 430.442H532.271L546.769 470.462L560.814 430.442H571.65L552.017 483.299H541.257ZM586.061 483.299V430.442H595.877V483.299H586.061ZM616.767 483.299V430.442H626.281L651.313 466.838V430.442H660.865V483.299H651.35L626.319 446.45V483.299H616.767ZM708.077 484.431C703.924 484.431 700.048 483.79 696.448 482.506C692.874 481.222 689.74 479.385 687.047 476.994C684.354 474.603 682.252 471.721 680.742 468.348C679.232 464.95 678.477 461.149 678.477 456.946C678.477 452.742 679.194 448.942 680.629 445.544C682.089 442.146 684.128 439.239 686.745 436.822C689.363 434.406 692.421 432.556 695.92 431.272C699.418 429.963 703.219 429.309 707.322 429.309C709.21 429.309 711.148 429.46 713.136 429.762C715.125 430.064 717.1 430.567 719.064 431.272C721.052 431.977 722.952 432.946 724.765 434.179L720.574 441.844C718.686 440.636 716.66 439.742 714.495 439.163C712.331 438.559 710.078 438.257 707.737 438.257C704.792 438.257 702.137 438.685 699.771 439.541C697.405 440.396 695.391 441.642 693.73 443.278C692.069 444.889 690.798 446.853 689.917 449.168C689.036 451.459 688.595 454.051 688.595 456.946C688.595 460.998 689.451 464.434 691.163 467.253C692.899 470.072 695.265 472.211 698.261 473.671C701.281 475.106 704.729 475.823 708.605 475.823C710.393 475.823 712.029 475.66 713.514 475.332C714.999 474.98 716.232 474.59 717.214 474.162V462.533H705.623V454.529H725.935V479.976C724.475 480.882 722.688 481.675 720.574 482.355C718.485 483.035 716.32 483.551 714.08 483.903C711.865 484.255 709.864 484.431 708.077 484.431ZM786.282 484.431C782.934 484.431 779.964 483.764 777.372 482.43C774.779 481.096 772.74 479.284 771.255 476.994C769.77 474.678 769.028 472.035 769.028 469.065C769.028 466.926 769.506 464.912 770.463 463.024C771.419 461.137 772.778 459.438 774.54 457.927C776.327 456.392 778.467 455.121 780.959 454.114C779.499 452.604 778.341 451.232 777.485 449.999C776.629 448.74 776.013 447.507 775.635 446.299C775.257 445.065 775.069 443.757 775.069 442.372C775.069 439.956 775.723 437.766 777.032 435.803C778.366 433.814 780.14 432.241 782.355 431.083C784.596 429.9 787.075 429.309 789.793 429.309C792.587 429.309 795.079 429.85 797.269 430.932C799.484 431.99 801.233 433.462 802.517 435.35C803.8 437.238 804.442 439.427 804.442 441.919C804.442 444.663 803.498 447.155 801.611 449.395C799.748 451.61 796.967 453.636 793.267 455.473L803.461 465.969C804.895 464.182 806.192 462.169 807.349 459.928C808.532 457.663 809.64 454.982 810.672 451.887L818.374 454.945C817.719 456.858 816.876 458.821 815.844 460.835C814.812 462.848 813.68 464.799 812.446 466.687C811.213 468.549 809.942 470.223 808.633 471.708L819.431 483.299H808.331L802.932 477.636C800.591 479.775 797.948 481.449 795.003 482.657C792.084 483.84 789.177 484.431 786.282 484.431ZM786.962 476.427C788.925 476.427 790.813 476.037 792.625 475.257C794.462 474.477 796.149 473.331 797.684 471.821L785.942 459.589C783.425 460.495 781.474 461.753 780.09 463.364C778.706 464.975 778.014 466.775 778.014 468.763C778.014 471.079 778.819 472.941 780.43 474.351C782.066 475.735 784.243 476.427 786.962 476.427ZM788.434 450.678C791.027 449.722 792.965 448.552 794.248 447.167C795.557 445.783 796.212 444.247 796.212 442.561C796.212 440.799 795.62 439.364 794.437 438.257C793.279 437.149 791.756 436.596 789.869 436.596C788.031 436.596 786.496 437.137 785.263 438.219C784.054 439.302 783.45 440.698 783.45 442.41C783.45 443.744 783.828 445.04 784.583 446.299C785.363 447.557 786.647 449.017 788.434 450.678ZM879.659 484.431C875.884 484.431 872.196 483.89 868.597 482.808C865.023 481.701 862.002 480.127 859.536 478.089L864.293 470.651C865.501 471.758 866.948 472.715 868.635 473.52C870.321 474.326 872.108 474.955 873.996 475.408C875.909 475.836 877.809 476.05 879.697 476.05C882.843 476.05 885.398 475.471 887.361 474.313C889.325 473.13 890.306 471.431 890.306 469.216C890.306 467.479 889.627 466.032 888.267 464.874C886.908 463.691 884.404 462.584 880.754 461.552L875.619 460.079C870.46 458.62 866.722 456.669 864.406 454.227C862.116 451.761 860.97 448.74 860.97 445.166C860.97 442.825 861.449 440.686 862.405 438.748C863.362 436.81 864.708 435.136 866.445 433.726C868.207 432.317 870.283 431.234 872.675 430.479C875.066 429.724 877.671 429.347 880.49 429.347C884.19 429.347 887.626 429.888 890.797 430.97C893.968 432.027 896.561 433.475 898.575 435.312L893.704 442.523C892.647 441.542 891.401 440.686 889.966 439.956C888.532 439.226 886.984 438.672 885.323 438.295C883.661 437.892 881.988 437.691 880.301 437.691C878.313 437.691 876.576 437.967 875.091 438.521C873.606 439.075 872.448 439.868 871.617 440.9C870.787 441.932 870.372 443.19 870.372 444.675C870.372 445.758 870.648 446.702 871.202 447.507C871.781 448.312 872.763 449.055 874.147 449.735C875.531 450.389 877.444 451.081 879.886 451.811L885.247 453.397C890.306 454.882 893.994 456.795 896.309 459.136C898.625 461.451 899.783 464.472 899.783 468.197C899.783 471.393 898.977 474.212 897.366 476.654C895.756 479.095 893.44 481.008 890.419 482.393C887.424 483.752 883.838 484.431 879.659 484.431ZM927.067 483.299V439.427H912.456V430.442H951.533V439.427H936.921V483.299H927.067ZM989.977 484.431C985.975 484.431 982.263 483.739 978.84 482.355C975.442 480.945 972.484 478.995 969.967 476.503C967.45 474.011 965.5 471.091 964.115 467.744C962.731 464.396 962.039 460.772 962.039 456.87C962.039 452.944 962.731 449.307 964.115 445.959C965.5 442.611 967.45 439.692 969.967 437.2C972.484 434.708 975.442 432.77 978.84 431.386C982.263 430.001 985.975 429.309 989.977 429.309C993.954 429.309 997.642 430.014 1001.04 431.423C1004.44 432.833 1007.4 434.796 1009.91 437.313C1012.43 439.83 1014.39 442.762 1015.8 446.11C1017.21 449.432 1017.92 453.019 1017.92 456.87C1017.92 460.772 1017.21 464.396 1015.8 467.744C1014.39 471.091 1012.43 474.011 1009.91 476.503C1007.4 478.995 1004.44 480.945 1001.04 482.355C997.642 483.739 993.954 484.431 989.977 484.431ZM989.977 475.181C992.469 475.181 994.785 474.754 996.924 473.898C999.089 473.017 1000.96 471.784 1002.55 470.198C1004.16 468.587 1005.41 466.661 1006.29 464.421C1007.19 462.156 1007.65 459.639 1007.65 456.87C1007.65 453.17 1006.87 449.948 1005.31 447.205C1003.75 444.461 1001.63 442.334 998.963 440.824C996.295 439.314 993.3 438.559 989.977 438.559C987.46 438.559 985.132 438.987 982.993 439.843C980.853 440.698 978.978 441.932 977.367 443.543C975.782 445.154 974.536 447.079 973.629 449.319C972.749 451.559 972.308 454.076 972.308 456.87C972.308 460.57 973.076 463.792 974.611 466.536C976.172 469.279 978.286 471.406 980.954 472.916C983.622 474.426 986.63 475.181 989.977 475.181ZM1035.48 483.299V430.442H1055.94C1059.69 430.442 1062.95 431.083 1065.72 432.367C1068.49 433.626 1070.63 435.438 1072.14 437.804C1073.65 440.17 1074.41 442.989 1074.41 446.261C1074.41 448.879 1073.86 451.182 1072.78 453.17C1071.7 455.159 1070.2 456.807 1068.29 458.116C1066.4 459.425 1064.21 460.344 1061.72 460.872L1077.09 483.299H1065.31L1051.64 462.609H1045.3V483.299H1035.48ZM1045.3 454.567H1054.51C1057.65 454.567 1060.11 453.913 1061.87 452.604C1063.63 451.27 1064.51 449.332 1064.51 446.79C1064.51 444.147 1063.71 442.133 1062.1 440.749C1060.49 439.364 1058.12 438.672 1055 438.672H1045.3V454.567ZM1087.72 483.299L1108 430.442H1118.95L1139.64 483.299H1128.57L1124.08 471.33H1102.83L1098.48 483.299H1087.72ZM1105.24 462.987H1121.59L1113.28 441.542L1105.24 462.987ZM1179.32 484.431C1175.17 484.431 1171.29 483.79 1167.69 482.506C1164.12 481.222 1160.99 479.385 1158.29 476.994C1155.6 474.603 1153.5 471.721 1151.99 468.348C1150.48 464.95 1149.72 461.149 1149.72 456.946C1149.72 452.742 1150.44 448.942 1151.88 445.544C1153.33 442.146 1155.37 439.239 1157.99 436.822C1160.61 434.406 1163.67 432.556 1167.17 431.272C1170.66 429.963 1174.47 429.309 1178.57 429.309C1180.46 429.309 1182.39 429.46 1184.38 429.762C1186.37 430.064 1188.35 430.567 1190.31 431.272C1192.3 431.977 1194.2 432.946 1196.01 434.179L1191.82 441.844C1189.93 440.636 1187.91 439.742 1185.74 439.163C1183.58 438.559 1181.32 438.257 1178.98 438.257C1176.04 438.257 1173.38 438.685 1171.02 439.541C1168.65 440.396 1166.64 441.642 1164.98 443.278C1163.31 444.889 1162.04 446.853 1161.16 449.168C1160.28 451.459 1159.84 454.051 1159.84 456.946C1159.84 460.998 1160.7 464.434 1162.41 467.253C1164.15 470.072 1166.51 472.211 1169.51 473.671C1172.53 475.106 1175.98 475.823 1179.85 475.823C1181.64 475.823 1183.27 475.66 1184.76 475.332C1186.24 474.98 1187.48 474.59 1188.46 474.162V462.533H1176.87V454.529H1197.18V479.976C1195.72 480.882 1193.93 481.675 1191.82 482.355C1189.73 483.035 1187.57 483.551 1185.33 483.903C1183.11 484.255 1181.11 484.431 1179.32 484.431ZM1217.34 483.299V430.442H1252.49V439.05H1227.16V451.849H1248.83V459.891H1227.16V474.615H1252.75V483.299H1217.34Z" fill="white"/>
<path d="M1338.18 458.757C1317.89 462.4 1313.45 466.842 1309.8 487.138C1309.6 488.246 1308.02 488.246 1307.82 487.138C1304.17 466.842 1299.73 462.4 1279.44 458.757C1278.33 458.558 1278.33 456.971 1279.44 456.772C1299.73 453.129 1304.17 448.687 1307.82 428.391C1308.02 427.284 1309.6 427.284 1309.8 428.391C1313.45 448.687 1317.89 453.129 1338.18 456.772C1339.29 456.971 1339.29 458.558 1338.18 458.757Z" fill="#EFC10C"/>
<path d="M353.312 458.757C333.016 462.4 328.574 466.842 324.931 487.138C324.732 488.246 323.145 488.246 322.946 487.138C319.303 466.842 314.861 462.4 294.565 458.757C293.458 458.558 293.458 456.971 294.565 456.772C314.861 453.129 319.303 448.687 322.946 428.391C323.145 427.284 324.732 427.284 324.931 428.391C328.574 448.687 333.016 453.129 353.312 456.772C354.419 456.971 354.419 458.558 353.312 458.757Z" fill="#EFC10C"/>
<rect x="1274.02" y="161.277" width="92.7698" height="66.8805" transform="rotate(-17.6804 1274.02 161.277)" fill="#EFC10C"/>
<path d="M1215.45 51.4392L1280.32 254.937L1389.77 220.047L1403.7 263.727L1289.1 300.256L1288.89 300.293C1288.89 300.302 1288.9 300.312 1288.9 300.321C1295.41 320.756 1284.13 342.601 1263.7 349.115C1243.26 355.628 1221.42 344.344 1214.9 323.91C1208.59 304.097 1219 282.956 1238.27 275.752L1176.66 82.4847L1100.25 43.4402L1119.87 3.78388L1215.45 51.4392ZM1247.32 297.727C1239.37 300.26 1234.98 308.756 1237.51 316.703C1240.05 324.649 1248.54 329.037 1256.49 326.504C1264.44 323.971 1268.82 315.476 1266.29 307.53C1263.76 299.583 1255.26 295.194 1247.32 297.727Z" fill="white"/>
</svg>
