<svg width="512" height="512" viewBox="0 0 512 512" fill="none" xmlns="http://www.w3.org/2000/svg">
  <rect width="512" height="512" rx="96" fill="#191C2B"/>
  <g transform="translate(256, 256) scale(5.5) translate(-1308.81, -457.76)">
    <path d="M1338.18 458.757C1317.89 462.4 1313.45 466.842 1309.8 487.138C1309.6 488.246 1308.02 488.246 1307.82 487.138C1304.17 466.842 1299.73 462.4 1279.44 458.757C1278.33 458.558 1278.33 456.971 1279.44 456.772C1299.73 453.129 1304.17 448.687 1307.82 428.391C1308.02 427.284 1309.6 427.284 1309.8 428.391C1313.45 448.687 1317.89 453.129 1338.18 456.772C1339.29 456.971 1339.29 458.558 1338.18 458.757Z" fill="#EFC10C"/>
  </g>
</svg>
